<svg t="1659257501548" class="icon" viewBox="0 0 1101 1024" version="1.1" xmlns="http://www.w3.org/2000/svg" p-id="3598" width="16" height="16"><path d="M992.797713 874.643848a387.27505 387.27505 0 0 0 106.834497-231.72911h1.526207v-19.967877-16.661094a212.142786 212.142786 0 0 0-12.718392-73.512308 648.638014 648.638014 0 0 0-187.214737-321.266593C818.174185 253.223193 693.533939 279.804634 554.013174 279.804634 419.70695 279.804634 299.518142 255.258136 216.212671 216.212671 127.183924 299.645326 45.659029 405.462351 14.117416 531.247252A210.616579 210.616579 0 0 0 0 606.540135V642.914738h1.526207a385.112923 385.112923 0 0 0 98.821909 222.826235 1422.552194 1422.552194 0 0 0 892.449597 8.902875z" fill="#9E592A" p-id="3599"></path><path d="M100.348116 865.740973c85.849149 96.278231 219.010718 158.216802 368.833381 158.216802H632.104104a494.745466 494.745466 0 0 0 360.693609-149.313927 1422.552194 1422.552194 0 0 1-892.449597-8.902875z" fill="#774422" p-id="3600"></path><path d="M879.858389 191.793358c-80.507424-71.986101-190.775887-139.902317-339.835446-191.793358A1314.954594 1314.954594 0 0 0 216.212671 216.212671l2.670863 1.27184a59.522077 59.522077 0 0 0-9.920346 32.559084c0 36.120235 33.322188 65.499721 74.402595 65.499721a76.310355 76.310355 0 0 0 63.591963-32.177533 49.60173 49.60173 0 0 0 28.489199 27.85328 59.776444 59.776444 0 0 0 55.452191-5.977645 65.118169 65.118169 0 0 0 33.449372 29.506671A73.25794 73.25794 0 0 0 556.048117 305.241418c0-1.017471 0.763104-2.034943 1.271839-3.179598a65.499721 65.499721 0 0 0 28.616383 21.621267 73.639492 73.639492 0 0 0 92.081162-30.269774 52.272593 52.272593 0 0 0 4.324253-11.192185 65.245353 65.245353 0 0 0 25.436785 17.678566 75.547251 75.547251 0 0 0 82.923919-17.551382 67.40748 67.40748 0 0 0 25.436785 17.551382 73.512308 73.512308 0 0 0 92.081161-30.269774 57.35995 57.35995 0 0 0-28.362015-77.836562z" fill="#C98955" p-id="3601"></path><path d="M719.733828 229.566983C826.695508 287.054117 915.724255 390.8362 934.67466 512.551215c4.832989 31.032878 52.018225 17.932933 47.31242-12.718392-20.222244-133.543121-120.443176-249.789227-237.452387-312.618086-27.853279-15.007703-52.654145 27.344544-24.800865 42.352246z" fill="#F3BD78" p-id="3602"></path><path d="M983.513287 622.310942m-34.33966 0a34.33966 34.33966 0 1 0 68.67932 0 34.33966 34.33966 0 1 0-68.67932 0Z" fill="#F3BD78" p-id="3603"></path></svg>